<svg xmlns="http://www.w3.org/2000/svg" version="1.1" xmlns:xlink="http://www.w3.org/1999/xlink" xmlns:svgjs="http://svgjs.dev/svgjs" width="1500" height="280" viewBox="0 0 1500 280"><g transform="matrix(1,0,0,1,-0.9090909090909918,-0.1599421125428364)"><svg viewBox="0 0 396 74" data-background-color="#ffffff" preserveAspectRatio="xMidYMid meet" height="280" width="1500" xmlns="http://www.w3.org/2000/svg" xmlns:xlink="http://www.w3.org/1999/xlink"><g id="tight-bounds" transform="matrix(1,0,0,1,0.2400000000000091,0.04227041545775023)"><svg viewBox="0 0 395.52 73.9154591690845" height="73.9154591690845" width="395.52"><g><svg viewBox="0 0 395.52 73.9154591690845" height="73.9154591690845" width="395.52"><g><svg viewBox="0 0 395.52 73.9154591690845" height="73.9154591690845" width="395.52"><g id="textblocktransform"><svg viewBox="0 0 395.52 73.9154591690845" height="73.9154591690845" width="395.52" id="textblock"><g><svg viewBox="0 0 395.52 47.00889191026512" height="47.00889191026512" width="395.52"><g transform="matrix(1,0,0,1,0,0)"><svg width="395.52" viewBox="2.3 -47 441.26 52.45" height="47.00889191026512" data-palette-color="#f5ba41"><path d="M41.15-29.8Q41.15-25.55 38.95-22 36.75-18.45 32.55-16.2 28.35-13.95 22.55-13.55L22.55-13.55 20.4-1.5Q19.15 5.45 13.6 5.45L13.6 5.45Q10.55 5.45 7.98 3.65 5.4 1.85 3.85-1.85 2.3-5.55 2.3-10.95L2.3-10.95Q2.3-21.1 5.58-28.18 8.85-35.25 14.38-38.78 19.9-42.3 26.55-42.3L26.55-42.3Q31.25-42.3 34.52-40.65 37.8-39 39.48-36.18 41.15-33.35 41.15-29.8L41.15-29.8ZM23.45-18.7Q33.7-20 33.7-29.35L33.7-29.35Q33.7-32.65 31.53-34.73 29.35-36.8 24.8-36.8L24.8-36.8Q19.65-36.8 15.83-33.55 12-30.3 9.93-24.53 7.85-18.75 7.85-11.35L7.85-11.35Q7.85-8.25 8.47-5.85 9.1-3.45 10.08-2.13 11.05-0.8 11.95-0.8L11.95-0.8Q13.2-0.8 13.85-4.25L13.85-4.25 15.5-13.7Q13.55-14 13.8-13.95L13.8-13.95Q12.3-14.2 11.85-14.88 11.4-15.55 11.4-16.6L11.4-16.6Q11.4-17.7 12.03-18.35 12.65-19 13.75-19L13.75-19Q14.25-19 14.5-18.95L14.5-18.95Q15.7-18.75 16.35-18.7L16.35-18.7Q17-22.6 18.2-29.15L18.2-29.15Q18.5-30.85 19.58-31.58 20.65-32.3 22.1-32.3L22.1-32.3Q23.75-32.3 24.48-31.68 25.2-31.05 25.2-29.7L25.2-29.7Q25.2-28.9 25.1-28.4L25.1-28.4 23.45-18.7ZM44.55 0.25Q41.45 0.25 39.6-2 37.75-4.25 37.75-7.9L37.75-7.9Q37.75-11.9 39.6-15.48 41.45-19.05 44.52-21.23 47.6-23.4 51.05-23.4L51.05-23.4Q52.15-23.4 52.52-22.98 52.9-22.55 53.15-21.45L53.15-21.45Q54.2-21.65 55.35-21.65L55.35-21.65Q57.8-21.65 57.8-19.9L57.8-19.9Q57.8-18.85 57.05-14.9L57.05-14.9Q55.9-9.15 55.9-6.9L55.9-6.9Q55.9-6.15 56.27-5.7 56.65-5.25 57.25-5.25L57.25-5.25Q58.2-5.25 59.55-6.48 60.9-7.7 63.2-10.45L63.2-10.45Q63.8-11.15 64.55-11.15L64.55-11.15Q65.2-11.15 65.57-10.55 65.95-9.95 65.95-8.9L65.95-8.9Q65.95-6.9 65-5.8L65-5.8Q62.95-3.25 60.65-1.5 58.35 0.25 56.2 0.25L56.2 0.25Q54.55 0.25 53.17-0.88 51.8-2 51.1-3.95L51.1-3.95Q48.5 0.25 44.55 0.25L44.55 0.25ZM46.35-4.8Q47.45-4.8 48.45-6.1 49.45-7.4 49.9-9.55L49.9-9.55 51.75-18.75Q49.65-18.7 47.87-17.18 46.1-15.65 45.05-13.15 44-10.65 44-7.85L44-7.85Q44-6.3 44.62-5.55 45.25-4.8 46.35-4.8L46.35-4.8ZM85.84-11.15Q86.5-11.15 86.87-10.55 87.25-9.95 87.25-8.9L87.25-8.9Q87.25-7.05 86.3-5.8L86.3-5.8Q83.95-2.75 80.47-1 77 0.75 72.65 0.75L72.65 0.75Q69.25 0.75 66.75-0.28 64.25-1.3 62.92-3.08 61.6-4.85 61.6-7.05L61.6-7.05Q61.6-10.35 64.25-12.9 66.9-15.45 71.84-17.8L71.84-17.8 63.65-17.6Q62.55-17.55 61.97-18.38 61.4-19.2 61.4-20.35L61.4-20.35Q61.4-21.55 61.97-22.48 62.55-23.4 63.55-23.4L63.55-23.4Q65.84-23.4 69.7-23.05L69.7-23.05Q70.5-23 72.62-22.85 74.75-22.7 76.2-22.7L76.2-22.7Q76.7-22.7 78.09-23.1L78.09-23.1Q78.34-23.15 79.07-23.35 79.8-23.55 80.3-23.55L80.3-23.55Q81.09-23.55 81.62-22.85 82.15-22.15 82.15-20.7L82.15-20.7Q82.15-19.1 81.4-18.2 80.65-17.3 79.05-16.6L79.05-16.6Q74.5-14.65 71.5-12.43 68.5-10.2 68.5-8L68.5-8Q68.5-6.6 69.8-5.7 71.09-4.8 73.65-4.8L73.65-4.8Q76.45-4.8 79.32-6.2 82.2-7.6 84.5-10.45L84.5-10.45Q85.09-11.15 85.84-11.15L85.84-11.15ZM89.69-26.6Q87.59-26.6 86.54-27.58 85.49-28.55 85.49-30.3L85.49-30.3Q85.49-32.05 86.87-33.23 88.24-34.4 90.29-34.4L90.29-34.4Q92.14-34.4 93.29-33.5 94.44-32.6 94.44-30.95L94.44-30.95Q94.44-28.95 93.14-27.78 91.84-26.6 89.69-26.6L89.69-26.6ZM89.29 0.25Q86.04 0.25 84.57-2.05 83.09-4.35 83.09-8.15L83.09-8.15Q83.09-10.4 83.67-13.93 84.24-17.45 85.14-20.5L85.14-20.5Q85.59-22.1 86.34-22.7 87.09-23.3 88.74-23.3L88.74-23.3Q91.29-23.3 91.29-21.6L91.29-21.6Q91.29-20.35 90.34-15.8L90.34-15.8Q89.14-10.3 89.14-8.35L89.14-8.35Q89.14-6.85 89.54-6.05 89.94-5.25 90.89-5.25L90.89-5.25Q91.79-5.25 93.14-6.5 94.49-7.75 96.74-10.45L96.74-10.45Q97.34-11.15 98.09-11.15L98.09-11.15Q98.74-11.15 99.12-10.55 99.49-9.95 99.49-8.9L99.49-8.9Q99.49-6.9 98.54-5.8L98.54-5.8Q93.59 0.25 89.29 0.25L89.29 0.25ZM120.94-15.35Q121.59-15.35 121.94-14.7 122.29-14.05 122.29-13.05L122.29-13.05Q122.29-10.65 120.84-10.2L120.84-10.2Q117.84-9.15 114.24-9L114.24-9Q113.29-4.8 110.49-2.27 107.69 0.25 104.14 0.25L104.14 0.25Q101.14 0.25 99.02-1.2 96.89-2.65 95.79-5.05 94.69-7.45 94.69-10.25L94.69-10.25Q94.69-14.05 96.14-17.03 97.59-20 100.14-21.68 102.69-23.35 105.79-23.35L105.79-23.35Q109.59-23.35 111.92-20.73 114.24-18.1 114.64-14.25L114.64-14.25Q116.99-14.4 120.24-15.25L120.24-15.25Q120.64-15.35 120.94-15.35L120.94-15.35ZM104.54-5.05Q106.14-5.05 107.32-6.35 108.49-7.65 108.89-10.1L108.89-10.1Q107.34-11.15 106.52-12.85 105.69-14.55 105.69-16.45L105.69-16.45Q105.69-17.25 105.84-18.05L105.84-18.05 105.59-18.05Q103.59-18.05 102.27-16.13 100.94-14.2 100.94-10.7L100.94-10.7Q100.94-7.95 102.02-6.5 103.09-5.05 104.54-5.05L104.54-5.05ZM121.54 0.25Q119.64 0.25 118.86-1.75 118.09-3.75 118.09-8.15L118.09-8.15Q118.09-14.65 119.94-20.5L119.94-20.5Q120.39-21.95 121.41-22.63 122.44-23.3 124.29-23.3L124.29-23.3Q125.29-23.3 125.69-23.05 126.09-22.8 126.09-22.1L126.09-22.1Q126.09-21.3 125.34-18.5L125.34-18.5Q124.84-16.5 124.54-15 124.24-13.5 124.04-11.3L124.04-11.3Q125.69-15.6 127.74-18.3 129.79-21 131.76-22.15 133.74-23.3 135.39-23.3L135.39-23.3Q138.64-23.3 138.64-20.05L138.64-20.05Q138.64-18.1 137.54-13L137.54-13Q136.59-8.65 136.59-7.25L136.59-7.25Q136.59-5.25 138.04-5.25L138.04-5.25Q139.04-5.25 140.41-6.48 141.79-7.7 144.09-10.45L144.09-10.45Q144.69-11.15 145.44-11.15L145.44-11.15Q146.09-11.15 146.46-10.55 146.84-9.95 146.84-8.9L146.84-8.9Q146.84-6.9 145.89-5.8L145.89-5.8Q143.74-3.15 141.26-1.45 138.79 0.25 135.64 0.25L135.64 0.25Q133.09 0.25 131.79-1.23 130.49-2.7 130.49-5.5L130.49-5.5Q130.49-6.9 131.19-10.5L131.19-10.5Q131.84-13.65 131.84-14.85L131.84-14.85Q131.84-15.65 131.29-15.65L131.29-15.65Q130.64-15.65 129.46-13.98 128.29-12.3 127.06-9.55 125.84-6.8 125.09-3.75L125.09-3.75Q124.54-1.4 123.81-0.58 123.09 0.25 121.54 0.25L121.54 0.25ZM169.98 0.4Q163.33 0.4 159.33-2.13 155.33-4.65 155.33-9.85L155.33-9.85Q155.33-12.6 156.28-14.05 157.23-15.5 159.08-15.5L159.08-15.5Q160.43-15.5 161.28-14.8 162.13-14.1 162.13-13L162.13-13Q162.13-12 161.98-11.25L161.98-11.25Q161.98-11.05 161.91-10.55 161.83-10.05 161.83-9.5L161.83-9.5Q161.83-7.25 164.11-6.15 166.38-5.05 170.48-5.05L170.48-5.05Q174.73-5.05 177.13-6.58 179.53-8.1 179.53-10.85L179.53-10.85Q179.53-12.55 178.43-13.78 177.33-15 175.68-15.83 174.03-16.65 171.03-17.85L171.03-17.85Q167.18-19.35 164.76-20.7 162.33-22.05 160.61-24.38 158.88-26.7 158.88-30.15L158.88-30.15Q158.88-33.75 160.81-36.55 162.73-39.35 166.36-40.9 169.98-42.45 174.88-42.45L174.88-42.45Q178.53-42.45 181.58-41.38 184.63-40.3 186.46-38.1 188.28-35.9 188.28-32.7L188.28-32.7Q188.28-29.55 187.33-27.95 186.38-26.35 184.53-26.35L184.53-26.35Q183.23-26.35 182.36-27.15 181.48-27.95 181.48-29.05L181.48-29.05Q181.48-30 181.63-30.8L181.63-30.8Q181.78-32.3 181.78-32.7L181.78-32.7Q181.78-34.8 179.73-35.9 177.68-37 174.63-37L174.63-37Q170.33-37 168.06-35.43 165.78-33.85 165.78-31L165.78-31Q165.78-29.1 166.96-27.75 168.13-26.4 169.88-25.5 171.63-24.6 174.78-23.35L174.78-23.35Q178.58-21.8 180.88-20.55 183.18-19.3 184.81-17.15 186.43-15 186.43-11.85L186.43-11.85Q186.43-5.95 181.96-2.78 177.48 0.4 169.98 0.4L169.98 0.4ZM216.18-15.35Q216.83-15.35 217.18-14.7 217.53-14.05 217.53-13.05L217.53-13.05Q217.53-10.65 216.08-10.2L216.08-10.2Q213.08-9.15 209.48-9L209.48-9Q208.53-4.8 205.73-2.27 202.93 0.25 199.38 0.25L199.38 0.25Q196.38 0.25 194.26-1.2 192.13-2.65 191.03-5.05 189.93-7.45 189.93-10.25L189.93-10.25Q189.93-14.05 191.38-17.03 192.83-20 195.38-21.68 197.93-23.35 201.03-23.35L201.03-23.35Q204.83-23.35 207.16-20.73 209.48-18.1 209.88-14.25L209.88-14.25Q212.23-14.4 215.48-15.25L215.48-15.25Q215.88-15.35 216.18-15.35L216.18-15.35ZM199.78-5.05Q201.38-5.05 202.56-6.35 203.73-7.65 204.13-10.1L204.13-10.1Q202.58-11.15 201.76-12.85 200.93-14.55 200.93-16.45L200.93-16.45Q200.93-17.25 201.08-18.05L201.08-18.05 200.83-18.05Q198.83-18.05 197.51-16.13 196.18-14.2 196.18-10.7L196.18-10.7Q196.18-7.95 197.26-6.5 198.33-5.05 199.78-5.05L199.78-5.05ZM222.78 0.25Q217.88 0.25 215.15-2.53 212.43-5.3 212.43-9.85L212.43-9.85Q212.43-13.9 214.03-16.95 215.63-20 218.18-21.65 220.73-23.3 223.53-23.3L223.53-23.3Q226.28-23.3 227.8-21.68 229.33-20.05 229.33-17.5L229.33-17.5Q229.33-15.4 228.4-13.95 227.48-12.5 225.98-12.5L225.98-12.5Q225.03-12.5 224.45-12.95 223.88-13.4 223.88-14.2L223.88-14.2Q223.88-14.55 223.98-15 224.08-15.45 224.13-15.65L224.13-15.65Q224.38-16.4 224.38-17.05L224.38-17.05Q224.38-17.7 224.05-18.05 223.73-18.4 223.13-18.4L223.13-18.4Q221.98-18.4 220.98-17.38 219.98-16.35 219.38-14.6 218.78-12.85 218.78-10.75L218.78-10.75Q218.78-4.95 223.83-4.95L223.83-4.95Q225.88-4.95 228.25-6.33 230.63-7.7 232.93-10.45L232.93-10.45Q233.53-11.15 234.28-11.15L234.28-11.15Q234.93-11.15 235.3-10.55 235.68-9.95 235.68-8.9L235.68-8.9Q235.68-7 234.73-5.8L234.73-5.8Q232.38-2.9 229.1-1.33 225.83 0.25 222.78 0.25L222.78 0.25ZM238.18-26.6Q236.08-26.6 235.03-27.58 233.98-28.55 233.98-30.3L233.98-30.3Q233.98-32.05 235.35-33.23 236.73-34.4 238.78-34.4L238.78-34.4Q240.63-34.4 241.78-33.5 242.93-32.6 242.93-30.95L242.93-30.95Q242.93-28.95 241.63-27.78 240.33-26.6 238.18-26.6L238.18-26.6ZM237.78 0.25Q234.53 0.25 233.05-2.05 231.58-4.35 231.58-8.15L231.58-8.15Q231.58-10.4 232.15-13.93 232.73-17.45 233.63-20.5L233.63-20.5Q234.08-22.1 234.83-22.7 235.58-23.3 237.23-23.3L237.23-23.3Q239.78-23.3 239.78-21.6L239.78-21.6Q239.78-20.35 238.83-15.8L238.83-15.8Q237.63-10.3 237.63-8.35L237.63-8.35Q237.63-6.85 238.03-6.05 238.43-5.25 239.38-5.25L239.38-5.25Q240.28-5.25 241.63-6.5 242.98-7.75 245.23-10.45L245.23-10.45Q245.83-11.15 246.58-11.15L246.58-11.15Q247.23-11.15 247.6-10.55 247.98-9.95 247.98-8.9L247.98-8.9Q247.98-6.9 247.03-5.8L247.03-5.8Q242.08 0.25 237.78 0.25L237.78 0.25ZM250.07 0.25Q246.97 0.25 245.12-2 243.27-4.25 243.27-7.9L243.27-7.9Q243.27-11.9 245.12-15.48 246.97-19.05 250.05-21.23 253.12-23.4 256.57-23.4L256.57-23.4Q257.67-23.4 258.05-22.98 258.42-22.55 258.67-21.45L258.67-21.45Q259.72-21.65 260.87-21.65L260.87-21.65Q263.32-21.65 263.32-19.9L263.32-19.9Q263.32-18.85 262.57-14.9L262.57-14.9Q261.42-9.15 261.42-6.9L261.42-6.9Q261.42-6.15 261.8-5.7 262.17-5.25 262.77-5.25L262.77-5.25Q263.72-5.25 265.07-6.48 266.42-7.7 268.72-10.45L268.72-10.45Q269.32-11.15 270.07-11.15L270.07-11.15Q270.72-11.15 271.1-10.55 271.47-9.95 271.47-8.9L271.47-8.9Q271.47-6.9 270.52-5.8L270.52-5.8Q268.47-3.25 266.17-1.5 263.87 0.25 261.72 0.25L261.72 0.25Q260.07 0.25 258.7-0.88 257.32-2 256.62-3.95L256.62-3.95Q254.02 0.25 250.07 0.25L250.07 0.25ZM251.87-4.8Q252.97-4.8 253.97-6.1 254.97-7.4 255.42-9.55L255.42-9.55 257.27-18.75Q255.17-18.7 253.4-17.18 251.62-15.65 250.57-13.15 249.52-10.65 249.52-7.85L249.52-7.85Q249.52-6.3 250.15-5.55 250.77-4.8 251.87-4.8L251.87-4.8ZM286.37-11.15Q287.02-11.15 287.4-10.55 287.77-9.95 287.77-8.9L287.77-8.9Q287.77-6.9 286.82-5.8L286.82-5.8Q284.67-3.15 282.15-1.45 279.62 0.25 276.42 0.25L276.42 0.25Q272.02 0.25 269.9-3.75 267.77-7.75 267.77-14.1L267.77-14.1Q267.77-20.2 269.35-28 270.92-35.8 274-41.4 277.07-47 281.32-47L281.32-47Q283.72-47 285.1-44.78 286.47-42.55 286.47-38.4L286.47-38.4Q286.47-32.45 283.17-24.6 279.87-16.75 274.22-9.05L274.22-9.05Q274.57-7 275.37-6.13 276.17-5.25 277.47-5.25L277.47-5.25Q279.52-5.25 281.07-6.43 282.62-7.6 285.02-10.45L285.02-10.45Q285.62-11.15 286.37-11.15L286.37-11.15ZM280.22-42.05Q279.07-42.05 277.62-37.9 276.17-33.75 275.07-27.6 273.97-21.45 273.87-15.8L273.87-15.8Q277.42-21.65 279.52-27.53 281.62-33.4 281.62-38.25L281.62-38.25Q281.62-42.05 280.22-42.05L280.22-42.05ZM306.17 0.25Q304.32 0.25 303.52-0.58 302.72-1.4 302.72-3.7L302.72-3.7Q302.72-5.25 303.04-7.68 303.37-10.1 304.12-14.35L304.12-14.35Q305.42-22.2 306.17-27.95L306.17-27.95Q306.62-31.55 306.62-33.95L306.62-33.95Q306.62-36.2 304.97-36.2L304.97-36.2Q303.67-36.2 301.84-34.88 300.02-33.55 297.82-30.65L297.82-30.65Q297.12-29.7 296.27-29.7L296.27-29.7Q295.57-29.7 295.04-30.38 294.52-31.05 294.52-31.9L294.52-31.9Q294.52-32.7 294.84-33.52 295.17-34.35 295.92-35.4L295.92-35.4Q298.32-38.75 301.27-40.58 304.22-42.4 307.17-42.4L307.17-42.4Q309.92-42.4 311.39-40.65 312.87-38.9 312.87-35.55L312.87-35.55Q312.87-34.2 312.62-32.38 312.37-30.55 312.17-29.4 311.97-28.25 311.87-27.8L311.87-27.8Q314.72-35.95 318.27-39.18 321.82-42.4 326.07-42.4L326.07-42.4Q329.32-42.4 331.19-40.1 333.07-37.8 333.07-33.6L333.07-33.6Q333.07-31.95 332.62-29.5L332.62-29.5Q335.12-36.4 338.47-39.4 341.82-42.4 346.17-42.4L346.17-42.4Q349.67-42.4 351.54-40.15 353.42-37.9 353.42-33.85L353.42-33.85Q353.42-31.65 352.77-28.5L352.77-28.5 349.72-14.2Q349.22-11.7 349.22-9.9L349.22-9.9Q349.22-7.8 350.19-6.75 351.17-5.7 352.92-5.7L352.92-5.7Q354.57-5.7 356.14-6.8 357.72-7.9 359.87-10.45L359.87-10.45Q360.47-11.15 361.22-11.15L361.22-11.15Q361.87-11.15 362.24-10.55 362.62-9.95 362.62-8.9L362.62-8.9Q362.62-6.95 361.67-5.8L361.67-5.8Q359.07-2.65 356.52-1.2 353.97 0.25 351.17 0.25L351.17 0.25Q346.92 0.25 344.52-2.27 342.12-4.8 342.12-9.05L342.12-9.05Q342.12-12 343.32-17.6L343.32-17.6 345.32-26.75Q345.42-27.2 345.67-28.35 345.92-29.5 346.07-30.53 346.22-31.55 346.22-32.55L346.22-32.55Q346.22-34.3 345.54-35.18 344.87-36.05 343.62-36.05L343.62-36.05Q341.27-36.05 338.69-33.02 336.12-30 333.79-23 331.47-16 330.02-4.8L330.02-4.8Q329.67-1.8 328.79-0.78 327.92 0.25 325.97 0.25L325.97 0.25Q324.27 0.25 323.49-0.55 322.72-1.35 322.72-3.55L322.72-3.55Q322.72-5.6 323.27-8.93 323.82-12.25 324.67-16.75L324.67-16.75Q326.97-28.85 326.97-32.35L326.97-32.35Q326.97-34.25 326.24-35.15 325.52-36.05 324.07-36.05L324.07-36.05Q321.62-36.05 319.02-33.27 316.42-30.5 313.94-23.43 311.47-16.35 309.82-4.3L309.82-4.3Q309.47-1.75 308.79-0.75 308.12 0.25 306.17 0.25L306.17 0.25ZM380.86-11.15Q381.51-11.15 381.89-10.55 382.26-9.95 382.26-8.9L382.26-8.9Q382.26-6.9 381.31-5.8L381.31-5.8Q379.46-3.55 376.09-1.65 372.71 0.25 368.86 0.25L368.86 0.25Q363.61 0.25 360.71-2.6 357.81-5.45 357.81-10.4L357.81-10.4Q357.81-13.85 359.26-16.82 360.71-19.8 363.29-21.55 365.86-23.3 369.11-23.3L369.11-23.3Q372.01-23.3 373.76-21.58 375.51-19.85 375.51-16.9L375.51-16.9Q375.51-13.45 373.04-10.98 370.56-8.5 364.66-7.05L364.66-7.05Q365.91-4.75 369.41-4.75L369.41-4.75Q371.66-4.75 374.54-6.33 377.41-7.9 379.51-10.45L379.51-10.45Q380.11-11.15 380.86-11.15L380.86-11.15ZM368.26-18.4Q366.41-18.4 365.14-16.25 363.86-14.1 363.86-11.05L363.86-11.05 363.86-10.95Q366.81-11.65 368.51-13.05 370.21-14.45 370.21-16.3L370.21-16.3Q370.21-17.25 369.69-17.82 369.16-18.4 368.26-18.4L368.26-18.4ZM406.36-11.15Q407.01-11.15 407.39-10.55 407.76-9.95 407.76-8.9L407.76-8.9Q407.76-6.9 406.81-5.8L406.81-5.8Q404.76-3.3 402.31-1.53 399.86 0.25 397.46 0.25L397.46 0.25Q393.66 0.25 391.66-4.2L391.66-4.2Q389.56-1.55 387.99-0.65 386.41 0.25 384.31 0.25L384.31 0.25Q381.26 0.25 379.29-2.02 377.31-4.3 377.31-7.95L377.31-7.95Q377.31-11.95 379.01-15.38 380.71-18.8 383.69-20.98 386.66-23.15 390.36-23.55L390.36-23.55Q391.31-33.25 393.99-40.13 396.66-47 401.01-47L401.01-47Q403.16-47 404.59-45.05 406.01-43.1 406.01-39.15L406.01-39.15Q406.01-33.55 403.26-26.05 400.51-18.55 395.91-10.65L395.91-10.65Q396.11-7.75 396.79-6.5 397.46-5.25 398.51-5.25L398.51-5.25Q399.86-5.25 401.26-6.45 402.66-7.65 405.01-10.45L405.01-10.45Q405.61-11.15 406.36-11.15L406.36-11.15ZM400.46-42.1Q399.51-42.1 398.56-38.73 397.61-35.35 396.94-29.9 396.26-24.45 395.96-18.5L395.96-18.5Q401.56-30.7 401.56-38.1L401.56-38.1Q401.56-40 401.24-41.05 400.91-42.1 400.46-42.1L400.46-42.1ZM386.06-4.8Q387.01-4.8 387.96-5.58 388.91-6.35 390.36-8.45L390.36-8.45Q389.86-11.15 389.86-14.5L389.86-14.5Q389.86-15.7 389.96-18.4L389.96-18.4Q387.21-17.55 385.39-14.73 383.56-11.9 383.56-8.45L383.56-8.45Q383.56-4.8 386.06-4.8L386.06-4.8ZM410.26-26.6Q408.16-26.6 407.11-27.58 406.06-28.55 406.06-30.3L406.06-30.3Q406.06-32.05 407.43-33.23 408.81-34.4 410.86-34.4L410.86-34.4Q412.71-34.4 413.86-33.5 415.01-32.6 415.01-30.95L415.01-30.95Q415.01-28.95 413.71-27.78 412.41-26.6 410.26-26.6L410.26-26.6ZM409.86 0.25Q406.61 0.25 405.13-2.05 403.66-4.35 403.66-8.15L403.66-8.15Q403.66-10.4 404.23-13.93 404.81-17.45 405.71-20.5L405.71-20.5Q406.16-22.1 406.91-22.7 407.66-23.3 409.31-23.3L409.31-23.3Q411.86-23.3 411.86-21.6L411.86-21.6Q411.86-20.35 410.91-15.8L410.91-15.8Q409.71-10.3 409.71-8.35L409.71-8.35Q409.71-6.85 410.11-6.05 410.51-5.25 411.46-5.25L411.46-5.25Q412.36-5.25 413.71-6.5 415.06-7.75 417.31-10.45L417.31-10.45Q417.91-11.15 418.66-11.15L418.66-11.15Q419.31-11.15 419.68-10.55 420.06-9.95 420.06-8.9L420.06-8.9Q420.06-6.9 419.11-5.8L419.11-5.8Q414.16 0.25 409.86 0.25L409.86 0.25ZM422.16 0.25Q419.06 0.25 417.21-2 415.36-4.25 415.36-7.9L415.36-7.9Q415.36-11.9 417.21-15.48 419.06-19.05 422.13-21.23 425.21-23.4 428.66-23.4L428.66-23.4Q429.76-23.4 430.13-22.98 430.51-22.55 430.76-21.45L430.76-21.45Q431.81-21.65 432.96-21.65L432.96-21.65Q435.41-21.65 435.41-19.9L435.41-19.9Q435.41-18.85 434.66-14.9L434.66-14.9Q433.51-9.15 433.51-6.9L433.51-6.9Q433.51-6.15 433.88-5.7 434.26-5.25 434.86-5.25L434.86-5.25Q435.81-5.25 437.16-6.48 438.51-7.7 440.81-10.45L440.81-10.45Q441.41-11.15 442.16-11.15L442.16-11.15Q442.81-11.15 443.18-10.55 443.56-9.95 443.56-8.9L443.56-8.9Q443.56-6.9 442.61-5.8L442.61-5.8Q440.56-3.25 438.26-1.5 435.96 0.25 433.81 0.25L433.81 0.25Q432.16 0.25 430.78-0.88 429.41-2 428.71-3.95L428.71-3.95Q426.11 0.25 422.16 0.25L422.16 0.25ZM423.96-4.8Q425.06-4.8 426.06-6.1 427.06-7.4 427.51-9.55L427.51-9.55 429.36-18.75Q427.26-18.7 425.48-17.18 423.71-15.65 422.66-13.15 421.61-10.65 421.61-7.85L421.61-7.85Q421.61-6.3 422.23-5.55 422.86-4.8 423.96-4.8L423.96-4.8Z" opacity="1" transform="matrix(1,0,0,1,0,0)" fill="#f5ba41" class="wordmark-text-0" data-fill-palette-color="primary" id="text-0"></path></svg></g></svg></g><g transform="matrix(1,0,0,1,75.54431999999998,58.10656307687287)"><svg viewBox="0 0 244.43136 15.808896092211638" height="15.808896092211638" width="244.43136"><g transform="matrix(1,0,0,1,0,0)"><svg width="244.43136" viewBox="2.25 -37.99 609.95 39.45" height="15.808896092211638" data-palette-color="#fce44d"><path d="M2.25-12.16L2.25-12.16Q2.34-24.17 2.34-30.08L2.34-30.08 2.34-30.37Q2.34-30.54 2.29-31.58 2.25-32.62 2.25-33.35L2.25-33.35Q2.25-36.28 2.73-36.67L2.73-36.67Q2.86-36.67 3.1-36.65 3.34-36.62 3.47-36.62L3.47-36.62Q7.57-36.82 12.99-36.82L12.99-36.82 16.31-36.82Q16.5-36.79 16.83-36.66 17.16-36.52 17.29-36.52L17.29-36.52Q17.31-35.33 17.4-32.4 17.48-29.47 17.52-27.32 17.55-25.17 17.53-23.1L17.53-23.1 17.53-13.57Q17.53-12.67 17.58-12.11 17.63-11.55 17.81-10.79 17.99-10.03 18.47-9.66 18.95-9.28 19.68-9.28L19.68-9.28Q20.7-9.28 21.34-10.14 21.97-11.01 21.97-12.16L21.97-12.16 21.97-21.09Q21.95-22.73 22.01-26.25 22.07-29.76 22.02-31.74L22.02-31.74 22.02-33.5Q22.02-33.76 21.97-34.31 21.92-34.86 21.92-35.16L21.92-35.16 21.92-36.33Q22-36.89 22.56-37.01L22.56-37.01Q27.25-37.01 36.62-36.91L36.62-36.91 36.62-36.52 37.7-36.52Q37.5-31.32 37.5-24.41L37.5-24.41 37.5-18.95Q37.5-17.85 37.45-15.58 37.4-13.31 37.4-12.21L37.4-12.21Q37.4-9.03 36.4-6.59 35.4-4.15 33.76-2.66 32.13-1.17 29.81-0.22 27.49 0.73 25.12 1.1 22.75 1.46 20.02 1.46L20.02 1.46Q17.38 1.46 15.08 1.14 12.77 0.81 10.4-0.13 8.03-1.07 6.32-2.54 4.61-4 3.49-6.47 2.37-8.94 2.25-12.16ZM65.62-33.59L73.97-33.59Q74.27-33.5 74.42-32.75 74.58-32.01 74.61-30.88 74.63-29.76 74.61-28.74 74.58-27.71 74.55-26.64 74.51-25.56 74.51-25.29L74.51-25.29Q74.46-24.32 74.46-22.56L74.46-22.56 74.46-19.97Q74.46-18.26 74.51-15.28 74.56-12.3 74.56-10.89L74.56-10.89 74.56-2Q74.46-1.17 73.19-1.17L73.19-1.17 59.52-1.17Q59.08-1.27 58.4-3.22L58.4-3.22Q57.93-4.52 56.85-7.47 55.76-10.42 54.98-12.66 54.2-14.89 53.56-16.99L53.56-16.99 53.56-17.14 53.56-16.99Q53.49-15.38 53.42-12.19 53.34-9.01 53.27-7.42L53.27-7.42 53.27-2.44Q53.27-1.71 53.1-1.43 52.93-1.15 52.19-0.98L52.19-0.98 42.14-0.98 41.06-2.05Q41.18-6.1 41.26-14.75 41.33-23.39 41.45-27.54L41.45-27.54 41.45-32.81Q41.7-33.69 42.04-33.69L42.04-33.69 42.04-33.59Q43.7-33.59 47.25-33.69 50.8-33.79 52.59-33.79L52.59-33.79 56.69-33.79Q56.71-33.79 56.76-33.76L56.76-33.76Q57.2-33.59 57.25-33.37L57.25-33.37 57.27-33.2Q58.15-30.83 59.06-28.3 59.96-25.76 61.2-22.16 62.45-18.55 62.94-17.19L62.94-17.19 62.94-20.8Q63.43-29.39 63.43-33.01L63.43-33.01Q63.43-33.4 63.96-33.5 64.5-33.59 65.62-33.59L65.62-33.59ZM92.33-0.93L78.95-0.93 78.95-33.01Q78.97-33.2 79.34-33.36 79.71-33.52 79.78-33.59L79.78-33.59 92.91-33.59 92.91-1.81Q92.79-1.29 92.68-1.11 92.57-0.93 92.33-0.93L92.33-0.93ZM95.06-24.71L95.06-24.71 95.06-33.5 123.48-33.5Q123.87-33.42 123.97-33.19 124.06-32.96 124.06-32.52L124.06-32.52 124.06-24.71Q124.02-24.12 123.38-24.12L123.38-24.12 116.45-24.12 116.45-1.66Q116.45-1.64 116.42-1.54 116.4-1.44 116.4-1.42 116.4-1.39 116.37-1.32 116.35-1.25 116.33-1.22 116.3-1.2 116.28-1.14 116.25-1.07 116.22-1.06 116.18-1.05 116.12-1.01 116.06-0.98 116-0.95 115.93-0.93 115.85-0.92 115.76-0.9 115.67-0.88L115.67-0.88 114.1-0.88Q110.98-0.88 110.98-1.07L110.98-1.07Q110.78-1.07 110.39-1.05 110-1.03 109.81-1.03L109.81-1.03 107.85-1.03Q107.29-1.03 106.25-1 105.22-0.98 104.63-0.98L104.63-0.98 103.26-0.98 102.29-1.66 102.29-6.93Q102.31-8.35 102.49-12.99 102.68-17.63 102.68-20.31L102.68-20.31 102.68-20.95Q102.68-21.14 102.7-21.56 102.73-21.97 102.73-22.17L102.73-22.17Q102.73-22.39 102.7-23.06 102.68-23.73 102.68-23.93L102.68-23.93 96.57-23.93Q96.04-23.93 95.55-24.11 95.06-24.29 95.06-24.71ZM125.92-1.81L125.92-31.54Q125.92-33.01 126.04-33.25L126.04-33.25Q126.26-33.59 126.75-33.59L126.75-33.59 127.33-33.59Q127.72-33.59 127.87-33.54L127.87-33.54 129.14-33.54Q131.61-33.54 136.6-33.67 141.59-33.79 144.08-33.79L144.08-33.79 150.58-33.79Q151.21-33.72 151.21-33.15L151.21-33.15 151.21-25Q151.19-24.85 151.13-24.74 151.06-24.63 151.03-24.6 150.99-24.56 150.8-24.43 150.6-24.29 150.53-24.22L150.53-24.22 139.2-24.22 139.2-21.19 140.27-21.19Q141.69-21.19 144.59-21.29 147.5-21.39 149.06-21.39L149.06-21.39Q149.75-21.39 149.99-21.12 150.23-20.85 150.23-20.36L150.23-20.36Q150.23-20.24 150.19-19.95 150.14-19.65 150.14-19.53L150.14-19.53 150.14-18.6Q150.14-18.51 150.16-18.2 150.19-17.9 150.19-17.68L150.19-17.68 150.19-16.99Q150.19-16.46 150.23-15.92 150.28-15.38 150.28-14.99L150.28-14.99 150.28-14.36Q150.16-14.06 150.09-13.96 150.01-13.87 149.84-13.87L149.84-13.87 149.84-13.92Q148.94-13.92 146.73-13.79 144.52-13.67 143.2-13.67L143.2-13.67 139.3-13.67 139.3-10.55Q139.49-10.55 139.88-10.52 140.27-10.5 140.47-10.5L140.47-10.5Q141.57-10.5 143.72-10.57 145.86-10.64 146.82-10.64L146.82-10.64 149.94-10.64Q151.21-10.64 151.55-10.35L151.55-10.35Q151.67-10.21 151.75-10.06L151.75-10.06 151.75-2.25Q151.75-1.73 151.55-1.46 151.36-1.2 150.82-1.17L150.82-1.17 126.65-1.17 125.92-1.81ZM155.85 0.39L155.07-0.34 155.07-1.07Q155.07-1.44 155.09-2.23 155.11-3.03 155.11-3.52L155.11-3.52 155.11-4.79Q155.11-10.74 155.9-10.74L155.9-10.74 165.91-10.74Q168.25-10.74 168.25-10.06L168.25-10.06Q168.35-5.37 168.35-2.88L168.35-2.88 168.35-2.05Q168.35-1.88 168.37-1.53 168.4-1.17 168.4-0.98L168.4-0.98Q168.4 0.39 167.86 0.39L167.86 0.39 155.85 0.39ZM204.04 1.46L204.04 1.46Q201.15 1.34 198.86 0.96 196.56 0.59 194.43-0.26 192.29-1.1 190.84-2.38 189.39-3.66 188.42-5.66 187.46-7.67 187.24-10.3L187.24-10.3Q187.24-10.77 187.73-10.84L187.73-10.84Q187.87-10.79 188.21-10.79L188.21-10.79Q190.24-10.79 194.37-10.89 198.49-10.99 200.52-10.99L200.52-10.99Q201.03-10.99 201.33-10.66 201.62-10.33 201.8-9.85 201.98-9.38 202.24-8.9 202.5-8.42 203.12-8.09 203.74-7.76 204.72-7.76L204.72-7.76Q205.92-7.76 206.83-8.44 207.75-9.11 207.75-10.25L207.75-10.25Q207.75-11.01 206.96-11.65 206.18-12.28 204.9-12.68 203.62-13.09 202.46-13.37 201.3-13.65 200.08-13.85 198.86-14.06 198.66-14.11L198.66-14.11Q192.73-15.72 190.13-18.12 187.53-20.51 187.53-24.66L187.53-24.66Q187.53-27.59 188.61-29.92 189.68-32.25 191.41-33.73 193.15-35.21 195.51-36.19 197.88-37.18 200.3-37.59 202.72-37.99 205.3-37.99L205.3-37.99Q212.17-37.99 216.24-35.45L216.24-35.45Q217.73-33.96 218.43-33.19 219.12-32.42 219.77-31.4 220.42-30.37 220.67-29.38 220.93-28.39 221.03-26.95L221.03-26.95 220.15-26.07Q215.14-25.88 208.92-25.88L208.92-25.88Q208.14-25.88 207.66-26.05 207.18-26.22 207.03-26.49 206.87-26.76 206.71-27.05 206.55-27.34 206.42-27.61 206.28-27.88 205.85-28.05 205.43-28.22 204.72-28.22L204.72-28.22Q204.52-28.22 204.1-28.15 203.67-28.08 203.1-27.92 202.52-27.76 202.11-27.43 201.69-27.1 201.69-26.66L201.69-26.66Q201.69-26.12 202.24-25.68 202.79-25.24 203.4-25.05 204.01-24.85 204.91-24.62 205.82-24.39 206.04-24.32L206.04-24.32Q211.36-22.97 212.38-22.66L212.38-22.66Q217.73-20.97 219.95-18.24L219.95-18.24Q222-15.7 222-11.87L222-11.87Q222-9.55 221.41-7.64 220.81-5.74 219.83-4.42 218.85-3.1 217.39-2.08 215.92-1.05 214.42-0.44 212.92 0.17 211.02 0.59 209.11 1 207.51 1.18 205.92 1.37 204.04 1.46ZM256.18-32.57L256.18-32.57 256.18-2.54Q256.18-2.03 256.14-1.72 256.11-1.42 255.94-1.15 255.77-0.88 255.45-0.88L255.45-0.88 243-0.88 243-1.42Q242.95-1.46 242.62-1.64 242.29-1.81 242.22-1.95L242.22-1.95 242.22-11.82Q242.22-12.35 242.13-12.43 242.05-12.5 241.44-12.5L241.44-12.5 239.77-12.5Q239.19-12.5 238.41-12.4L238.41-12.4 238.41-1.86Q238.31-1.42 238.03-1.29 237.75-1.17 237.19-1.17L237.19-1.17 236.06-1.17Q234.92-1.17 232.46-1.12 230.01-1.07 228.74-1.07L228.74-1.07 225.52-1.07Q224.47-1.07 224.47-2.25L224.47-2.25 224.61-33.01Q224.61-33.13 224.69-33.22 224.76-33.3 224.98-33.46 225.2-33.62 225.22-33.64L225.22-33.64 238.36-33.64 238.36-23.14 242.61-23.14 242.61-33.89 255.06-33.89Q255.64-33.89 255.91-33.62 256.18-33.35 256.18-32.57ZM279.71-6.05L272.19-6.05Q272.02-5.49 271.86-4.58 271.71-3.66 271.57-3.14 271.44-2.61 271.12-2.04 270.8-1.46 270.16-1.2 269.51-0.93 268.48-0.93L268.48-0.93 257.94-0.93 257.94-1.76Q259.23-5.64 261.71-13.67 264.19-21.7 265.55-25.83L265.55-25.83 265.55-25.78Q266.38-28.15 268-33.2L268-33.2Q268.02-33.25 268.07-33.33L268.07-33.33Q268.29-33.69 268.48-33.89L268.48-33.89 281.67-33.79Q285.04-33.79 285.38-33.2L285.38-33.2 285.38-32.57Q285.43-32.35 285.92-31.45L285.92-31.45Q288.28-24.19 289.38-20.9L289.38-20.9 289.38-20.61Q289.48-19.9 289.82-18.99 290.16-18.09 290.64-17.05 291.12-16.02 291.31-15.43L291.31-15.43 292.29-11.91Q293.14-9.08 294.8-4.35L294.8-4.35 294.8-4.39 294.8-3.91Q294.87-3.56 295.17-2.98 295.46-2.39 295.53-2.15L295.53-2.15Q295.53-1.46 295.25-1.27 294.97-1.07 294.17-1.07L294.17-1.07 282.84-1.07Q282.42-1.12 282.3-1.15 282.18-1.17 281.92-1.25 281.67-1.32 281.56-1.44 281.45-1.56 281.42-1.76L281.42-1.76 280.5-5.47Q280.4-5.93 280.3-5.99 280.2-6.05 279.71-6.05L279.71-6.05ZM273.37-14.65L273.37-14.75 273.37-14.65ZM278.74-17.68L278.74-17.68Q278.59-18.36 278.31-19.89 278.03-21.41 277.76-22.55 277.49-23.68 277.17-24.66L277.17-24.66 277.17-25.83Q276.98-26.34 276.49-26.56L276.49-26.56 276.49-26.51Q275.91-26.39 275.32-23.24L275.32-23.24 275.32-22.07Q275.27-21.9 275.1-21.75 274.93-21.61 274.93-21.58L274.93-21.58Q274.12-18.02 273.61-15.82L273.61-15.82Q273.61-15.58 273.49-14.97 273.37-14.36 273.37-14.26L273.37-14.26 279.42-14.26Q279.42-14.89 278.98-16.55L278.98-16.55 278.98-17.09Q278.96-17.16 278.85-17.37 278.74-17.58 278.74-17.68ZM297.14-0.98L297.14-33.59 301.68-33.59Q303.78-33.59 308.4-33.69 313.01-33.79 315.31-33.79L315.31-33.79Q317.28-33.79 319.01-33.57 320.73-33.35 322.4-32.76 324.07-32.18 325.26-31.27 326.44-30.37 327.17-28.89 327.9-27.42 327.9-25.49L327.9-25.49Q327.9-22.83 326.66-20.95 325.41-19.07 322.83-17.77L322.83-17.77Q323.85-17.33 324.61-16.63 325.37-15.92 325.77-15.41 326.17-14.89 326.55-13.68 326.93-12.48 327-12.1 327.07-11.72 327.32-10.23L327.32-10.23Q327.39-9.89 327.42-9.72L327.42-9.72Q327.51-8.74 328.25-6.14 328.98-3.54 328.98-2.15L328.98-2.15Q328.98-1.27 328.44-1.27L328.44-1.27Q326.98-1.27 324.01-1.25 321.04-1.22 319.6-1.22L319.6-1.22Q319.02-1.27 317.85-1.27L317.85-1.27 316.19-1.27Q315.7-1.42 315.23-2.78 314.77-4.15 314.57-5.86L314.57-5.86 314.04-10.21Q313.89-10.74 313.81-10.97 313.72-11.21 313.5-11.54 313.28-11.87 312.9-11.99 312.52-12.11 311.94-12.11L311.94-12.11 310.81-12.11 310.81-2.34Q310.81-2.27 310.81-2.11 310.81-1.95 310.81-1.89 310.81-1.83 310.81-1.71 310.81-1.59 310.79-1.53 310.77-1.46 310.74-1.37 310.72-1.27 310.68-1.23 310.64-1.2 310.58-1.14 310.52-1.07 310.44-1.05 310.35-1.03 310.24-1 310.13-0.98 309.98-0.98L309.98-0.98 297.14-0.98ZM310.96-20.7L310.96-20.7Q311.01-20.65 311.11-20.5 311.21-20.34 311.3-20.24 311.4-20.14 311.5-20.12L311.5-20.12Q312.23-20.12 312.96-20.28 313.7-20.43 314.46-20.8 315.23-21.17 315.71-21.92 316.19-22.68 316.19-23.73L316.19-23.73Q316.19-26.27 311.3-26.27L311.3-26.27Q310.81-26.15 310.81-25.88L310.81-25.88 310.81-24.95Q310.81-24.24 310.89-22.83 310.96-21.41 310.96-20.7ZM331.17-1.81L331.17-31.54Q331.17-33.01 331.3-33.25L331.3-33.25Q331.52-33.59 332-33.59L332-33.59 332.59-33.59Q332.98-33.59 333.13-33.54L333.13-33.54 334.4-33.54Q336.86-33.54 341.85-33.67 346.85-33.79 349.34-33.79L349.34-33.79 355.83-33.79Q356.47-33.72 356.47-33.15L356.47-33.15 356.47-25Q356.44-24.85 356.38-24.74 356.32-24.63 356.28-24.6 356.25-24.56 356.05-24.43 355.86-24.29 355.78-24.22L355.78-24.22 344.45-24.22 344.45-21.19 345.53-21.19Q346.95-21.19 349.85-21.29 352.76-21.39 354.32-21.39L354.32-21.39Q355-21.39 355.25-21.12 355.49-20.85 355.49-20.36L355.49-20.36Q355.49-20.24 355.44-19.95 355.39-19.65 355.39-19.53L355.39-19.53 355.39-18.6Q355.39-18.51 355.42-18.2 355.44-17.9 355.44-17.68L355.44-17.68 355.44-16.99Q355.44-16.46 355.49-15.92 355.54-15.38 355.54-14.99L355.54-14.99 355.54-14.36Q355.42-14.06 355.34-13.96 355.27-13.87 355.1-13.87L355.1-13.87 355.1-13.92Q354.2-13.92 351.99-13.79 349.78-13.67 348.46-13.67L348.46-13.67 344.55-13.67 344.55-10.55Q344.75-10.55 345.14-10.52 345.53-10.5 345.72-10.5L345.72-10.5Q346.82-10.5 348.97-10.57 351.12-10.64 352.07-10.64L352.07-10.64 355.2-10.64Q356.47-10.64 356.81-10.35L356.81-10.35Q356.93-10.21 357-10.06L357-10.06 357-2.25Q357-1.73 356.81-1.46 356.61-1.2 356.08-1.17L356.08-1.17 331.91-1.17 331.17-1.81ZM361.1 0.39L360.32-0.34 360.32-1.07Q360.32-1.44 360.35-2.23 360.37-3.03 360.37-3.52L360.37-3.52 360.37-4.79Q360.37-10.74 361.15-10.74L361.15-10.74 371.16-10.74Q373.51-10.74 373.51-10.06L373.51-10.06Q373.6-5.37 373.6-2.88L373.6-2.88 373.6-2.05Q373.6-1.88 373.63-1.53 373.65-1.17 373.65-0.98L373.65-0.98Q373.65 0.39 373.11 0.39L373.11 0.39 361.1 0.39ZM409.29 0.63L393.52 0.63Q393.62-6.47 393.86-9.77L393.86-9.77Q393.86-20.02 394.15-30.57L394.15-30.57Q394.06-32.62 394.06-33.59L394.06-33.59 394.06-34.33Q393.96-35.4 393.96-36.08L393.96-36.08Q393.96-36.55 394.4-36.91L394.4-36.91Q398.4-36.62 406.61-36.62L406.61-36.62Q408.56-36.62 409.29-36.72L409.29-36.72 409.29 0.63ZM438.29-33.59L446.64-33.59Q446.94-33.5 447.09-32.75 447.25-32.01 447.28-30.88 447.3-29.76 447.28-28.74 447.25-27.71 447.22-26.64 447.18-25.56 447.18-25.29L447.18-25.29Q447.13-24.32 447.13-22.56L447.13-22.56 447.13-19.97Q447.13-18.26 447.18-15.28 447.23-12.3 447.23-10.89L447.23-10.89 447.23-2Q447.13-1.17 445.86-1.17L445.86-1.17 432.19-1.17Q431.75-1.27 431.07-3.22L431.07-3.22Q430.6-4.52 429.52-7.47 428.43-10.42 427.65-12.66 426.87-14.89 426.23-16.99L426.23-16.99 426.23-17.14 426.23-16.99Q426.16-15.38 426.09-12.19 426.01-9.01 425.94-7.42L425.94-7.42 425.94-2.44Q425.94-1.71 425.77-1.43 425.6-1.15 424.86-0.98L424.86-0.98 414.81-0.98 413.73-2.05Q413.85-6.1 413.93-14.75 414-23.39 414.12-27.54L414.12-27.54 414.12-32.81Q414.37-33.69 414.71-33.69L414.71-33.69 414.71-33.59Q416.37-33.59 419.92-33.69 423.47-33.79 425.26-33.79L425.26-33.79 429.36-33.79Q429.38-33.79 429.43-33.76L429.43-33.76Q429.87-33.59 429.92-33.37L429.92-33.37 429.94-33.2Q430.82-30.83 431.73-28.3 432.63-25.76 433.87-22.16 435.12-18.55 435.61-17.19L435.61-17.19 435.61-20.8Q436.1-29.39 436.1-33.01L436.1-33.01Q436.1-33.4 436.63-33.5 437.17-33.59 438.29-33.59L438.29-33.59ZM470.96-24.12L470.96-24.12Q470.3-24.12 469.88-24.32 469.47-24.51 469.22-24.8 468.98-25.1 468.67-25.39 468.37-25.68 467.71-25.88 467.05-26.07 466.02-26.07L466.02-26.07Q465.71-26.07 465.26-26.01 464.8-25.95 464.27-25.68 463.73-25.42 463.73-25L463.73-25Q463.73-24.54 464.18-24.21 464.63-23.88 465.21-23.74 465.78-23.61 466.5-23.43 467.22-23.24 467.51-23.1L467.51-23.1 471.1-22.22Q472.69-21.78 473.96-21.29 475.23-20.8 476.66-19.96 478.09-19.12 479.04-18.09 479.99-17.07 480.62-15.52 481.26-13.96 481.26-12.11L481.26-12.11Q481.26-9.86 480.67-8.11L480.67-8.11 480.67-8.15Q480.16-6.59 479.23-5.36 478.3-4.13 477.04-3.31 475.77-2.49 474.47-1.94 473.18-1.39 471.48-1.06 469.78-0.73 468.45-0.57 467.12-0.42 465.39-0.29L465.39-0.29Q457.7-0.68 455.09-2.73L455.09-2.73 455.09-3.03Q452.87-4.69 451.8-6.64 450.74-8.59 450.55-11.04L450.55-11.04Q450.55-11.62 451.08-11.62L451.08-11.62Q451.23-11.62 451.52-11.6 451.82-11.57 451.96-11.57L451.96-11.57 454.45-11.57Q454.79-11.62 455.43-11.62L455.43-11.62 456.06-11.62Q456.26-11.62 456.41-11.57L456.41-11.57Q457.82-11.62 461.24-11.62L461.24-11.62 462.36-11.62Q462.85-11.62 463.12-11.33 463.39-11.04 463.55-10.61 463.71-10.18 463.91-9.75 464.12-9.33 464.66-9.03 465.19-8.74 466.07-8.74L466.07-8.74Q467.03-8.74 467.79-9.24 468.56-9.74 468.56-10.69L468.56-10.69Q468.56-11.13 468.15-11.52 467.73-11.91 466.9-12.23 466.07-12.55 465.43-12.74 464.78-12.94 463.68-13.21 462.58-13.48 462.26-13.57L462.26-13.57 460.8-13.57Q455.5-15.14 453.17-17.54 450.84-19.95 450.84-23.63L450.84-23.63Q450.84-26.07 451.75-28.03 452.67-29.98 454.17-31.23 455.67-32.47 457.7-33.31 459.73-34.16 461.83-34.51 463.92-34.86 466.17-34.86L466.17-34.86Q470.15-34.86 473.56-33.53 476.96-32.2 478.72-30.08L478.72-30.08Q479.35-29.44 479.75-28.47 480.14-27.49 480.25-26.92 480.36-26.34 480.53-25L480.53-25 479.84-24.02 475.69-24.02Q475.01-24.02 473.42-24.07 471.84-24.12 470.96-24.12ZM496.2-0.98L484.48-0.98 483.97-17.24Q483.97-18.92 484.02-21.04 484.06-23.17 484.14-24.88 484.21-26.59 484.27-28.76 484.33-30.93 484.33-32.71L484.33-32.71Q484.33-33.2 484.66-33.34 484.99-33.47 485.49-33.42 485.99-33.37 486.63-33.5L486.63-33.5 504.11-33.5Q505.6-33.5 507.09-33.12 508.58-32.74 510-31.9 511.43-31.05 512.52-29.85 513.6-28.64 514.28-26.83 514.95-25.02 514.95-22.85L514.95-22.85Q514.95-19.97 513.73-17.74 512.51-15.5 510.06-13.53L510.06-13.53Q507.06-11.96 502.84-11.72L502.84-11.72 502.06-11.72Q501.08-11.52 500.1-11.52L500.1-11.52 498.15-11.52Q498-11.52 497.91-11.47L497.91-11.47Q497.91-5.08 498.1-1.81L498.1-1.81Q497.98-1.32 497.58-1.15 497.17-0.98 496.2-0.98L496.2-0.98ZM496.69-19.63L496.69-19.63 496.69-19.19Q496.71-19.17 497.02-19.03 497.32-18.9 497.32-18.85L497.32-18.85 497.32-18.8Q497.27-18.8 497.27-18.9L497.27-18.9Q497.32-18.85 497.56-18.85L497.56-18.85Q499.74-18.85 501.24-19.82 502.74-20.8 502.74-22.85L502.74-22.85Q502.74-23.78 502.42-24.44 502.11-25.1 501.65-25.45 501.2-25.81 500.43-25.99 499.66-26.17 499.03-26.22 498.4-26.27 497.42-26.27L497.42-26.27Q497.39-26.25 497.22-26.1 497.05-25.95 496.98-25.88L496.98-25.88 496.98-23.34Q496.69-21 496.69-19.63ZM530.42-0.93L517.04-0.93 517.04-33.01Q517.07-33.2 517.44-33.36 517.8-33.52 517.87-33.59L517.87-33.59 531.01-33.59 531.01-1.81Q530.89-1.29 530.78-1.11 530.67-0.93 530.42-0.93L530.42-0.93ZM535.69-0.98L535.69-33.59 540.24-33.59Q542.34-33.59 546.95-33.69 551.56-33.79 553.86-33.79L553.86-33.79Q555.84-33.79 557.56-33.57 559.28-33.35 560.95-32.76 562.62-32.18 563.81-31.27 564.99-30.37 565.72-28.89 566.46-27.42 566.46-25.49L566.46-25.49Q566.46-22.83 565.21-20.95 563.97-19.07 561.38-17.77L561.38-17.77Q562.4-17.33 563.16-16.63 563.92-15.92 564.32-15.41 564.72-14.89 565.1-13.68 565.48-12.48 565.55-12.1 565.63-11.72 565.87-10.23L565.87-10.23Q565.94-9.89 565.97-9.72L565.97-9.72Q566.07-8.74 566.8-6.14 567.53-3.54 567.53-2.15L567.53-2.15Q567.53-1.27 566.99-1.27L566.99-1.27Q565.53-1.27 562.56-1.25 559.6-1.22 558.16-1.22L558.16-1.22Q557.57-1.27 556.4-1.27L556.4-1.27 554.74-1.27Q554.25-1.42 553.79-2.78 553.32-4.15 553.13-5.86L553.13-5.86 552.59-10.21Q552.44-10.74 552.36-10.97 552.27-11.21 552.05-11.54 551.83-11.87 551.45-11.99 551.08-12.11 550.49-12.11L550.49-12.11 549.37-12.11 549.37-2.34Q549.37-2.27 549.37-2.11 549.37-1.95 549.37-1.89 549.37-1.83 549.37-1.71 549.37-1.59 549.34-1.53 549.32-1.46 549.29-1.37 549.27-1.27 549.23-1.23 549.2-1.2 549.13-1.14 549.07-1.07 548.99-1.05 548.9-1.03 548.79-1 548.68-0.98 548.54-0.98L548.54-0.98 535.69-0.98ZM549.51-20.7L549.51-20.7Q549.56-20.65 549.66-20.5 549.76-20.34 549.85-20.24 549.95-20.14 550.05-20.12L550.05-20.12Q550.78-20.12 551.51-20.28 552.25-20.43 553.02-20.8 553.79-21.17 554.26-21.92 554.74-22.68 554.74-23.73L554.74-23.73Q554.74-26.27 549.85-26.27L549.85-26.27Q549.37-26.15 549.37-25.88L549.37-25.88 549.37-24.95Q549.37-24.24 549.44-22.83 549.51-21.41 549.51-20.7ZM569.73-1.81L569.73-31.54Q569.73-33.01 569.85-33.25L569.85-33.25Q570.07-33.59 570.56-33.59L570.56-33.59 571.14-33.59Q571.53-33.59 571.68-33.54L571.68-33.54 572.95-33.54Q575.41-33.54 580.41-33.67 585.4-33.79 587.89-33.79L587.89-33.79 594.38-33.79Q595.02-33.72 595.02-33.15L595.02-33.15 595.02-25Q594.99-24.85 594.93-24.74 594.87-24.63 594.84-24.6 594.8-24.56 594.6-24.43 594.41-24.29 594.33-24.22L594.33-24.22 583.01-24.22 583.01-21.19 584.08-21.19Q585.5-21.19 588.4-21.29 591.31-21.39 592.87-21.39L592.87-21.39Q593.55-21.39 593.8-21.12 594.04-20.85 594.04-20.36L594.04-20.36Q594.04-20.24 593.99-19.95 593.94-19.65 593.94-19.53L593.94-19.53 593.94-18.6Q593.94-18.51 593.97-18.2 593.99-17.9 593.99-17.68L593.99-17.68 593.99-16.99Q593.99-16.46 594.04-15.92 594.09-15.38 594.09-14.99L594.09-14.99 594.09-14.36Q593.97-14.06 593.9-13.96 593.82-13.87 593.65-13.87L593.65-13.87 593.65-13.92Q592.75-13.92 590.54-13.79 588.33-13.67 587.01-13.67L587.01-13.67 583.1-13.67 583.1-10.55Q583.3-10.55 583.69-10.52 584.08-10.5 584.28-10.5L584.28-10.5Q585.37-10.5 587.52-10.57 589.67-10.64 590.62-10.64L590.62-10.64 593.75-10.64Q595.02-10.64 595.36-10.35L595.36-10.35Q595.48-10.21 595.56-10.06L595.56-10.06 595.56-2.25Q595.56-1.73 595.36-1.46 595.16-1.2 594.63-1.17L594.63-1.17 570.46-1.17 569.73-1.81ZM599.65 0.39L598.87-0.34 598.87-1.07Q598.87-1.44 598.9-2.23 598.92-3.03 598.92-3.52L598.92-3.52 598.92-4.79Q598.92-10.74 599.7-10.74L599.7-10.74 609.71-10.74Q612.06-10.74 612.06-10.06L612.06-10.06Q612.15-5.37 612.15-2.88L612.15-2.88 612.15-2.05Q612.15-1.88 612.18-1.53 612.2-1.17 612.2-0.98L612.2-0.98Q612.2 0.39 611.67 0.39L611.67 0.39 599.65 0.39Z" opacity="1" transform="matrix(1,0,0,1,0,0)" fill="#fce44d" class="slogan-text-1" data-fill-palette-color="secondary" id="text-1"></path></svg></g></svg></g></svg></g></svg></g></svg></g><defs></defs></svg><rect width="395.52" height="73.9154591690845" fill="none" stroke="none" visibility="hidden"></rect></g></svg></g></svg>